<svg xmlns="http://www.w3.org/2000/svg" width="185" height="44" viewBox="0 0 185 44">
  <g id="Grupo_21" data-name="Grupo 21" transform="translate(-34 154)">
    <g id="Camada_x0020_1" transform="translate(34 -150.945)">
      <path id="Exclusão_2" data-name="Exclusão 2" d="M61.737,29.988a8.594,8.594,0,0,1-.877-.044,7.993,7.993,0,0,1-.83-.129,7.546,7.546,0,0,1-.782-.209,7.281,7.281,0,0,1-2.05-1.05c-.2-.147-.4-.306-.582-.473s-.361-.341-.53-.525-.327-.374-.477-.572-.291-.4-.423-.614-.254-.427-.368-.649-.218-.448-.313-.68-.18-.466-.256-.705-.142-.481-.2-.725-.1-.492-.141-.739-.064-.5-.082-.747-.024-.488-.022-.731.014-.489.036-.729.053-.486.094-.722.093-.479.153-.71.132-.466.213-.693.173-.452.274-.67.215-.437.336-.643.257-.416.4-.611A7.282,7.282,0,0,1,57.541,14.6a7.928,7.928,0,0,1,.722-.374c.254-.116.519-.22.789-.312s.564-.175.857-.244.611-.128.926-.171c.236-.033.473-.058.7-.074s.454-.024.677-.024c.3,0,.59.014.876.043a8.124,8.124,0,0,1,.827.126,7.577,7.577,0,0,1,.778.2,7.311,7.311,0,0,1,.727.275,7.157,7.157,0,0,1,1.3.746,7.286,7.286,0,0,1,.574.46c.18.16.356.332.521.511s.322.365.469.558.286.392.415.6.25.417.361.634.214.44.306.664.177.456.251.69.139.469.2.71.1.482.139.725.065.489.082.734.026.494.025.74-.012.5-.033.74-.052.492-.092.734-.091.486-.151.722-.132.476-.211.706-.172.462-.272.684-.213.445-.332.657-.254.425-.394.625-.3.4-.456.587a7.336,7.336,0,0,1-1.1,1.04,7.471,7.471,0,0,1-.646.443,7.715,7.715,0,0,1-.711.384,8.182,8.182,0,0,1-.775.321c-.272.1-.555.181-.841.251s-.6.132-.907.177c-.239.035-.48.062-.715.08S61.962,29.988,61.737,29.988ZM62,17.3a4.533,4.533,0,0,0-.609.042,4.963,4.963,0,0,0-.634.13c-.15.041-.3.088-.436.14s-.272.109-.4.171-.248.128-.366.2-.226.146-.332.227a3.827,3.827,0,0,0-1,1.127c-.061.106-.119.215-.17.326s-.1.223-.139.338a4.335,4.335,0,0,0-.187.706,4.659,4.659,0,0,0-.07.73,4.91,4.91,0,0,0,.043.735,5.032,5.032,0,0,0,.158.745,4.925,4.925,0,0,0,.269.711,4.7,4.7,0,0,0,.375.657,4.362,4.362,0,0,0,.477.583c.088.09.181.177.275.257s.2.159.3.231.213.141.322.2a3.772,3.772,0,0,0,.345.171,3.963,3.963,0,0,0,1.592.323A4.709,4.709,0,0,0,62.471,26a5.474,5.474,0,0,0,.694-.146,3.749,3.749,0,0,0,.7-.277,4.181,4.181,0,0,0,.658-.421,4.453,4.453,0,0,0,.586-.549,4.527,4.527,0,0,0,.489-.661,4.472,4.472,0,0,0,.368-.757c.05-.134.094-.272.131-.41s.068-.283.091-.428a4.408,4.408,0,0,0,.048-.444,4.478,4.478,0,0,0,0-.458,4.6,4.6,0,0,0-.046-.47,4.767,4.767,0,0,0-.1-.48,4.211,4.211,0,0,0-.217-.627,4.372,4.372,0,0,0-.315-.593,4.417,4.417,0,0,0-.407-.544,4.361,4.361,0,0,0-.491-.479,4.242,4.242,0,0,0-.568-.4A4.116,4.116,0,0,0,62,17.3ZM41.657,29.869h0l-3.945-.048c0-.081,0-.154,0-.213v0h0a2.032,2.032,0,0,0-.065-.692,1.387,1.387,0,0,1-.067-.341.225.225,0,0,1-.083-.049,1.864,1.864,0,0,1-.179-.172,1.938,1.938,0,0,1-.287.339,2.679,2.679,0,0,1-.378.3,4.287,4.287,0,0,1-.977.459,6.955,6.955,0,0,1-1.185.279,8.894,8.894,0,0,1-2.349.03,7.3,7.3,0,0,1-1-.192,5.243,5.243,0,0,1-.892-.323,3.76,3.76,0,0,1-.386-.211,2.983,2.983,0,0,1-.337-.245,3.791,3.791,0,0,1-.346-.332,3.844,3.844,0,0,1-.3-.367,4.009,4.009,0,0,1-.25-.4,4.231,4.231,0,0,1-.2-.424,4.672,4.672,0,0,1-.268-.907,5.234,5.234,0,0,1-.09-.955,5.616,5.616,0,0,1,.431-2.176,5.06,5.06,0,0,1,.53-.962,4.382,4.382,0,0,1,.725-.8,3.054,3.054,0,0,1,.4-.285,4.322,4.322,0,0,1,.46-.242c.156-.071.328-.14.512-.2s.358-.118.554-.173.376-.1.584-.147c.183-.042.381-.084.6-.128.4-.079.812-.149,1.207-.217l.012,0a18.26,18.26,0,0,0,2.191-.46,4.427,4.427,0,0,0,.422-.153,2.451,2.451,0,0,0,.349-.181,1.579,1.579,0,0,0,.143-.1,1.173,1.173,0,0,0,.12-.112.911.911,0,0,0,.1-.121.784.784,0,0,0,.071-.132,1.811,1.811,0,0,0,.11-.359,1.311,1.311,0,0,0,.021-.323,1.1,1.1,0,0,0-.057-.289,1.117,1.117,0,0,0-.127-.254,1.331,1.331,0,0,0-.188-.222A1.737,1.737,0,0,0,37,17.162a2.6,2.6,0,0,0-.593-.285,3.944,3.944,0,0,0-.685-.166c-.116-.018-.235-.032-.354-.041s-.234-.013-.349-.013c-.056,0-.115,0-.174,0a4.744,4.744,0,0,0-1,.128c-.064.017-.125.036-.183.056s-.11.042-.16.066a1.436,1.436,0,0,0-.14.075,1.273,1.273,0,0,0-.122.084,2.215,2.215,0,0,0-.616.989,8.008,8.008,0,0,1-.379.818l-3.7.007a4.8,4.8,0,0,1-.042-.492,4.494,4.494,0,0,1,.009-.473,4.33,4.33,0,0,1,.057-.453,4.237,4.237,0,0,1,.245-.844c.053-.131.114-.262.181-.389s.138-.247.216-.366.16-.232.247-.343a5.034,5.034,0,0,1,.576-.612,5.449,5.449,0,0,1,.661-.509,5.689,5.689,0,0,1,.721-.4,5.584,5.584,0,0,1,.753-.286c.225-.067.459-.127.7-.177s.474-.092.718-.125a10.908,10.908,0,0,1,1.471-.1,11.377,11.377,0,0,1,1.2.064,10.834,10.834,0,0,1,1.168.189,9.54,9.54,0,0,1,1.1.31,7.813,7.813,0,0,1,1,.425c.137.071.269.146.39.224a4.12,4.12,0,0,1,.341.242,3.635,3.635,0,0,1,.295.261,3.357,3.357,0,0,1,.252.279,3.26,3.26,0,0,1,.212.3,3.358,3.358,0,0,1,.176.314c.051.1.1.216.143.331s.079.228.113.348.061.24.086.365.045.249.063.382c.033.246.056.512.07.813.026.565.016,1.172.005,1.816v.007c-.006.362-.012.736-.012,1.128,0,.79,0,1.6,0,2.307v.193c0,1.942-.008,4.143.012,6.262Zm-4.1-7.94c-.533.174-1.213.342-1.871.5a19.693,19.693,0,0,0-2.378.682,2.176,2.176,0,0,0-1.286,1.553,2.075,2.075,0,0,0,.45,1.868,1.938,1.938,0,0,0,1.473.53,4.471,4.471,0,0,0,2.5-.807c1.052-.827,1.073-2.178,1.1-3.742v-.006C37.546,22.322,37.549,22.127,37.554,21.93ZM21.869,29.865h0L21.9,9.346l3.878.086.005,20.416Zm22.417-.007h0l.067-15.752,3.636.049L48,15.991a5.324,5.324,0,0,0,.709-.6h0c.2-.192.436-.409.7-.622a6.191,6.191,0,0,1,.882-.612,5.073,5.073,0,0,1,.527-.26c.092-.039.189-.076.288-.111s.2-.068.306-.1.216-.056.324-.078.229-.043.343-.058.24-.028.363-.037.254-.013.384-.013c.187,0,.379.009.571.026l.053,3.856c-.349.013-.68.036-.984.068-.151.016-.3.034-.444.055s-.282.044-.414.07-.262.054-.385.085-.242.064-.357.1-.224.074-.33.115-.206.084-.3.13-.191.1-.278.146-.174.106-.255.162-.16.118-.231.178-.142.126-.209.194-.128.137-.188.211-.116.15-.168.228-.1.159-.149.245-.09.172-.131.262-.078.182-.114.28-.068.194-.1.3-.058.206-.083.315-.048.217-.07.333a11.4,11.4,0,0,0-.159,1.52c-.052,1.115-.01,2.441.039,3.976.033,1.04.071,2.219.083,3.5Zm-34.179-.08h0c-.309,0-.624-.013-.937-.038s-.644-.066-.965-.118a8.465,8.465,0,0,1-.837-.18c-.274-.073-.548-.162-.816-.262s-.532-.215-.791-.341-.514-.266-.761-.415-.49-.312-.725-.485-.466-.358-.685-.55-.434-.4-.641-.612-.4-.438-.591-.668-.369-.475-.536-.721-.33-.508-.477-.769-.288-.538-.413-.813-.241-.564-.343-.853S.4,22.363.32,22.065s-.141-.611-.191-.919S.043,20.514.022,20.2s-.027-.646-.018-.968c.009-.3.032-.606.07-.907s.089-.6.154-.892.143-.585.234-.872.194-.569.309-.847.242-.551.38-.816.287-.528.446-.781.329-.5.508-.74.368-.471.565-.694.4-.438.618-.642.437-.4.666-.586.468-.362.709-.524.5-.317.749-.457.519-.27.783-.384.54-.219.813-.307a8.566,8.566,0,0,1,.839-.224,8.214,8.214,0,0,1,.86-.136c.227-.024.457-.042.683-.054s.446-.018.665-.018c.321,0,.644.013.958.038s.617.063.916.113.588.111.873.184.56.157.829.251.528.2.784.315.5.241.738.375.469.279.692.432.437.314.645.485a9.785,9.785,0,0,1,2.092,2.4c.14.224.273.459.4.7s.24.481.345.727.2.5.293.755.169.518.239.78l-4.167,0c-.06-.151-.125-.3-.2-.442s-.145-.281-.225-.413-.163-.26-.252-.384-.18-.241-.277-.355a5.524,5.524,0,0,0-1.323-1.134,5.991,5.991,0,0,0-1.575-.676,6.468,6.468,0,0,0-.844-.168,6.689,6.689,0,0,0-2.1.059c-.2.038-.407.086-.6.143s-.4.124-.589.2-.384.163-.567.256a6.085,6.085,0,0,0-.54.313,5.907,5.907,0,0,0-.506.369,5.835,5.835,0,0,0-.468.425c-.132.134-.26.277-.378.424a5.71,5.71,0,0,0-.636.979,5.951,5.951,0,0,0-.25.555,6.254,6.254,0,0,0-.2.6c-.057.207-.106.423-.144.641s-.067.452-.085.684-.026.48-.022.727a6.492,6.492,0,0,0,.57,2.638,5.781,5.781,0,0,0,.289.548,5.713,5.713,0,0,0,.338.5,5.775,5.775,0,0,0,.383.457,5.845,5.845,0,0,0,.422.411c.146.128.3.251.458.364s.321.219.489.317.34.188.516.27.354.155.537.221.369.124.555.173.378.091.568.124.383.058.576.075.388.025.579.025a6.492,6.492,0,0,0,1.673-.217,5.927,5.927,0,0,0,1.551-.657c.121-.074.241-.153.355-.235s.23-.171.339-.263.218-.19.32-.292.206-.211.3-.32.19-.229.278-.349.175-.25.255-.378.158-.269.229-.408.14-.288.2-.437l4.157-.008c-.061.255-.133.509-.215.758s-.174.5-.276.739-.215.482-.336.715-.254.464-.394.687-.292.445-.45.656-.329.422-.5.62-.364.4-.555.58-.4.367-.605.537-.43.336-.653.489-.462.3-.7.437-.492.265-.744.381-.52.225-.786.321-.547.183-.826.257-.575.138-.864.188-.6.09-.9.116S10.42,29.779,10.107,29.779Zm72.737-8.309-10.269-.006.092-3.549h10.28l-.1,3.554ZM70.834,13.936h0l-2.481-2.569,9.442-9.3L80.221,4.5l-9.386,9.436ZM64.051,10.2h0l-3.426-.069L60.7.017,63.99,0a4.475,4.475,0,0,1,.1.7c.027.309.05.7.068,1.17.018.442.031.942.04,1.487.009.521.013,1.076.014,1.651,0,1.116-.014,2.247-.042,3.183-.014.481-.032.894-.051,1.227-.021.354-.044.617-.068.781Z" fill="#f62717"/>
    </g>
    <text id="box_tv" data-name="box tv" transform="translate(121 -121)" fill="#fff" font-size="31" font-family="Poppins-Bold, Poppins" font-weight="700"><tspan x="0" y="0">box tv</tspan></text>
  </g>
</svg>
